<svg width="27" height="44" viewBox="0 0 27 44" fill="none" xmlns="http://www.w3.org/2000/svg">
<g id="&#240;&#159;&#166;&#134; icon &#34;lightbulb&#34;">
<path id="Vector" d="M18.5589 0.54089C18.3144 0.61353 18.0815 0.720987 17.8676 0.859955L1.91439 8.83656C1.54051 8.94561 1.19516 9.13546 0.902742 9.39268C0.610325 9.64991 0.377984 9.96823 0.222146 10.3251C0.0663084 10.6821 -0.0092211 11.0688 0.000897709 11.4582C0.0110165 11.8475 0.106537 12.2298 0.280704 12.5782C0.454872 12.9265 0.703435 13.2323 1.00882 13.474C1.3142 13.7157 1.66895 13.8873 2.04799 13.9768C2.42702 14.0663 2.82108 14.0714 3.20231 13.9918C3.58354 13.9122 3.94263 13.7498 4.25419 13.5162L20.2074 5.53957C20.78 5.25477 21.2308 4.77312 21.4771 4.18291C21.7235 3.59271 21.7488 2.9335 21.5485 2.32613C21.3482 1.71876 20.9357 1.20395 20.3866 0.876053C19.8375 0.548161 19.1886 0.429169 18.5589 0.54089ZM23.8766 8.5175C23.6321 8.59014 23.3993 8.6976 23.1853 8.83656L1.91439 19.472C1.54051 19.5811 1.19516 19.7709 0.902742 20.0282C0.610325 20.2854 0.377984 20.6037 0.222146 20.9606C0.0663084 21.3175 -0.0092211 21.7043 0.000897709 22.0936C0.0110165 22.483 0.106537 22.8653 0.280704 23.2136C0.454872 23.562 0.703435 23.8678 1.00882 24.1095C1.3142 24.3512 1.66895 24.5228 2.04799 24.6123C2.42702 24.7018 2.82108 24.7069 3.20231 24.6273C3.58354 24.5477 3.94263 24.3853 4.25419 24.1517L25.5251 13.5162C26.0978 13.2314 26.5486 12.7497 26.7949 12.1595C27.0412 11.5693 27.0665 10.9101 26.8662 10.3027C26.6659 9.69537 26.2534 9.18056 25.7043 8.85266C25.1552 8.52477 24.5064 8.40578 23.8766 8.5175ZM23.8766 19.153C23.6321 19.2256 23.3993 19.3331 23.1853 19.472L7.23213 27.4487C6.71753 27.7256 6.3085 28.1644 6.0683 28.6971C5.8281 29.2299 5.7701 29.8269 5.90327 30.3959C6.03645 30.9649 6.35337 31.4742 6.80504 31.845C7.25672 32.2158 7.81798 32.4275 8.40203 32.4473H19.0375C19.7427 32.5602 20.4638 32.3882 21.0422 31.9694C21.6206 31.5505 22.009 30.9191 22.1218 30.2139C22.2346 29.5087 22.0627 28.7876 21.6438 28.2092C21.225 27.6308 20.5935 27.2424 19.8883 27.1296L25.5251 24.1517C26.0978 23.8669 26.5486 23.3852 26.7949 22.795C27.0412 22.2048 27.0665 21.5456 26.8662 20.9382C26.6659 20.3309 26.2534 19.816 25.7043 19.4881C25.1552 19.1602 24.5064 19.0413 23.8766 19.153ZM10.2632 37.7651C9.55806 37.8779 8.92659 38.2662 8.50774 38.8447C8.08888 39.4231 7.91696 40.1442 8.02979 40.8494C8.14262 41.5545 8.53095 42.186 9.10937 42.6049C9.68779 43.0237 10.4089 43.1956 11.1141 43.0828H16.4318C17.137 43.0828 17.8133 42.8027 18.3119 42.304C18.8106 41.8054 19.0907 41.1291 19.0907 40.4239C19.0907 39.7188 18.8106 39.0425 18.3119 38.5438C17.8133 38.0452 17.137 37.7651 16.4318 37.7651H11.1141C10.9549 37.7507 10.7947 37.7507 10.6355 37.7651C10.5292 37.7587 10.4227 37.7587 10.3164 37.7651H10.2632Z" fill="black"/>
</g>
</svg>
